<?xml version="1.0" standalone="no"?>
<!DOCTYPE svg PUBLIC "-//W3C//DTD SVG 20010904//EN"
 "http://www.w3.org/TR/2001/REC-SVG-20010904/DTD/svg10.dtd">
<svg version="1.0" xmlns="http://www.w3.org/2000/svg"
 width="1082.000000pt" height="231.000000pt" viewBox="0 0 1082.000000 231.000000"
 preserveAspectRatio="xMidYMid meet">
<metadata>
Created by potrace 1.16, written by Peter Selinger 2001-2019
</metadata>
<g transform="translate(0.000000,231.000000) scale(0.100000,-0.100000)"
fill="#000000" stroke="none">
<path d="M3942 1968 l3 -343 133 -3 132 -3 0 346 0 345 -135 0 -135 0 2 -342z"/>
<path d="M4948 2073 c-246 -240 -508 -509 -508 -521 0 -4 40 -47 89 -96 l88
-88 49 44 c71 63 413 409 506 511 l80 87 -83 85 c-45 47 -89 85 -97 85 -7 0
-63 -48 -124 -107z"/>
<path d="M530 1699 c-147 -40 -228 -85 -325 -183 -81 -81 -128 -147 -157 -220
-81 -202 -60 -471 50 -635 68 -102 184 -207 277 -251 113 -53 145 -60 290 -60
161 0 256 25 358 94 21 14 40 26 43 26 3 0 15 11 28 25 13 14 28 25 35 25 6 0
11 3 11 8 1 4 21 29 45 56 45 50 120 190 131 245 l7 31 -152 0 -151 0 -27 -42
c-42 -65 -101 -117 -168 -149 -52 -25 -72 -29 -147 -29 -77 0 -95 4 -150 30
-120 58 -170 110 -214 221 -41 105 -37 212 11 313 28 59 121 148 189 181 79
38 182 46 252 19 100 -37 204 -108 204 -139 0 -6 11 -22 25 -35 14 -13 25 -29
25 -37 0 -10 32 -13 150 -13 l150 0 0 26 c0 40 -57 163 -102 222 -111 143
-248 237 -391 266 -83 17 -241 20 -297 5z"/>
<path d="M1420 1025 l0 -685 33 -1 c40 -2 181 -2 222 0 l30 1 -2 682 -3 683
-140 3 -140 3 0 -686z"/>
<path d="M9439 1558 c-1 -46 -4 -110 -8 -143 l-6 -60 -39 -6 c-21 -3 -42 -12
-46 -19 -5 -9 -9 -9 -14 -1 -10 16 -79 50 -112 55 -16 2 -47 7 -70 11 -51 8
-166 -11 -218 -36 -48 -23 -43 -23 -48 -1 -4 14 -18 21 -53 25 -59 9 -182 9
-212 1 l-22 -6 0 -509 0 -509 144 0 145 0 0 323 c0 302 1 326 20 364 37 77
101 101 170 65 78 -42 83 -40 173 48 88 87 95 88 96 9 1 -39 13 -49 56 -49 13
0 27 -5 30 -11 4 -5 11 -126 16 -267 12 -339 11 -334 65 -392 66 -71 125 -90
275 -90 l119 0 0 125 0 125 -63 0 c-75 0 -90 12 -106 80 -11 48 -15 370 -5
407 6 20 13 22 88 25 l81 3 3 113 3 112 -73 0 c-40 0 -80 5 -88 10 -12 7 -16
38 -18 145 l-4 135 -139 0 -139 0 -1 -82z"/>
<path d="M2199 1446 c-2 -2 -26 -7 -54 -10 -154 -20 -279 -154 -293 -313 l-5
-63 141 0 140 0 15 38 c21 51 54 79 109 91 94 21 188 -21 188 -84 0 -45 -37
-59 -245 -95 -273 -48 -365 -140 -365 -365 0 -117 15 -159 76 -218 69 -67 113
-82 239 -81 87 0 125 5 183 24 40 12 75 27 78 31 12 21 34 7 40 -26 6 -32 9
-35 43 -36 41 -2 169 -2 220 0 l34 1 -6 438 c-3 271 -9 450 -16 471 -14 46
-84 116 -144 147 -60 31 -185 54 -293 54 -44 0 -83 -2 -85 -4z m239 -663 c-2
-33 -15 -83 -30 -115 -23 -49 -34 -61 -75 -80 -33 -16 -66 -23 -106 -23 -52 0
-62 3 -83 28 -26 31 -33 101 -13 139 14 25 81 55 177 79 41 10 77 20 80 23 3
3 16 6 30 6 24 0 24 -2 20 -57z"/>
<path d="M3918 1435 c-119 -25 -227 -99 -321 -220 -43 -56 -67 -106 -87 -185
-70 -275 61 -539 329 -660 50 -23 67 -25 205 -25 140 0 155 2 201 25 150 73
251 176 306 311 27 67 29 79 29 213 0 130 -2 148 -26 207 -14 35 -42 85 -60
111 -50 67 -147 152 -210 183 -90 44 -258 62 -366 40z m188 -294 c72 -22 115
-51 147 -100 79 -122 50 -283 -67 -369 -48 -35 -52 -36 -141 -37 -88 0 -92 1
-140 36 -202 144 -143 428 100 482 34 8 38 7 101 -12z"/>
<path d="M3365 1428 c-48 -10 -111 -43 -162 -85 l-43 -34 0 40 0 41 -140 0
-140 0 0 -525 0 -525 140 0 140 0 0 273 c1 332 10 386 79 460 47 50 89 67 184
74 l77 6 0 144 0 144 -50 -3 c-27 -2 -65 -6 -85 -10z"/>
<path d="M6995 1390 c-22 -5 -57 -16 -79 -25 -35 -15 -39 -15 -57 0 -13 13
-45 18 -122 22 -58 3 -116 3 -131 -1 l-26 -6 0 -690 0 -690 140 0 140 0 0 169
c0 93 3 183 6 200 6 28 8 30 23 18 31 -27 85 -37 195 -37 101 0 116 3 171 28
57 28 119 84 146 133 30 57 37 121 38 365 0 268 -5 306 -53 382 -37 59 -115
113 -182 127 -55 11 -169 14 -209 5z m91 -285 c36 -23 53 -67 65 -158 19 -151
-6 -268 -67 -316 -32 -25 -69 -27 -122 -6 -30 13 -44 27 -65 70 -25 52 -27 61
-24 192 2 137 5 152 45 211 5 7 26 19 47 26 41 15 79 9 121 -19z"/>
<path d="M7898 1390 c-32 -5 -72 -17 -90 -26 -43 -21 -138 -86 -138 -93 0 -3
-11 -19 -25 -35 -57 -66 -69 -110 -79 -285 -11 -187 0 -316 33 -384 35 -71
145 -174 216 -201 64 -25 301 -24 351 2 11 5 36 17 57 26 58 25 128 97 164
168 27 53 34 81 42 171 11 129 -3 361 -26 425 -33 94 -178 214 -273 227 -84
11 -179 13 -232 5z m172 -285 c16 -8 36 -28 45 -45 30 -58 40 -236 19 -335
-14 -66 -76 -117 -137 -113 -52 3 -109 46 -126 93 -23 66 -26 236 -6 311 18
68 39 91 100 111 31 10 51 6 105 -22z"/>
<path d="M5840 1371 c-106 -41 -177 -108 -206 -194 -24 -72 -16 -229 15 -279
49 -80 157 -127 332 -142 137 -13 191 -42 174 -95 -12 -40 -54 -56 -150 -56
-86 0 -94 2 -175 42 l-84 41 -27 -19 c-42 -30 -160 -161 -156 -173 2 -6 26
-28 53 -48 105 -80 171 -98 370 -98 168 0 242 16 327 70 92 58 127 134 128
280 1 115 -11 149 -77 210 -63 58 -114 77 -263 94 -157 18 -191 32 -191 81 0
38 13 48 72 59 48 9 159 -10 216 -35 38 -18 48 -19 68 -8 35 18 154 145 154
163 0 24 -88 84 -154 104 -84 27 -360 29 -426 3z"/>
<path d="M10255 1380 c-91 -19 -185 -92 -229 -179 -25 -47 -27 -243 -3 -287
21 -41 104 -114 128 -114 11 0 19 -4 19 -9 0 -9 11 -11 199 -36 140 -19 171
-33 171 -78 0 -49 -48 -71 -154 -72 -69 0 -90 4 -141 29 -33 15 -75 35 -93 42
l-33 15 -85 -86 c-48 -49 -84 -94 -84 -105 0 -24 63 -72 140 -108 79 -37 164
-48 330 -42 135 5 149 8 210 36 141 66 182 131 188 294 5 137 -4 165 -76 232
-67 62 -126 82 -262 93 -134 10 -190 34 -190 81 0 60 134 78 255 35 33 -12 68
-24 77 -28 13 -4 40 16 92 67 80 78 91 98 69 129 -20 29 -94 70 -150 85 -56
14 -320 19 -378 6z"/>
<path d="M4712 1020 c2 -72 6 -130 11 -130 4 0 162 0 352 0 l345 0 0 130 0
130 -355 0 -356 0 3 -130z"/>
</g>
</svg>
